<svg width="1024" height="1024" viewBox="0 0 680 680" xmlns="http://www.w3.org/2000/svg">
  <circle cx="340" cy="340" r="300" fill="#0D1117"/>
  <circle cx="340" cy="340" r="300" fill="none" stroke="#00D4AA" stroke-width="8"/>
  <circle cx="340" cy="340" r="258" fill="none" stroke="#00D4AA" stroke-width="1.5" stroke-dasharray="6 4"/>
  <polygon points="340,170 520,265 340,360 160,265" fill="#00D4AA"/>
  <polygon points="340,178 508,268 340,348 172,268" fill="#05E8BB" opacity="0.25"/>
  <polygon points="160,265 240,305 240,370 160,330" fill="#009E80"/>
  <polygon points="520,265 440,305 440,370 520,330" fill="#009E80"/>
  <polygon points="240,305 440,305 440,370 240,370" fill="#00B894"/>
  <line x1="520" y1="265" x2="520" y2="390" stroke="#00D4AA" stroke-width="5" stroke-linecap="round"/>
  <circle cx="520" cy="395" r="10" fill="#00D4AA"/>
  <line x1="505" y1="395" x2="495" y2="440" stroke="#00D4AA" stroke-width="3.5" stroke-linecap="round"/>
  <line x1="515" y1="397" x2="510" y2="445" stroke="#00D4AA" stroke-width="3.5" stroke-linecap="round"/>
  <line x1="520" y1="398" x2="520" y2="446" stroke="#00D4AA" stroke-width="3.5" stroke-linecap="round"/>
  <line x1="526" y1="397" x2="530" y2="445" stroke="#00D4AA" stroke-width="3.5" stroke-linecap="round"/>
  <line x1="534" y1="395" x2="545" y2="440" stroke="#00D4AA" stroke-width="3.5" stroke-linecap="round"/>
  <rect x="330" y="355" width="20" height="80" rx="4" fill="#009E80"/>
  <rect x="295" y="428" width="90" height="18" rx="8" fill="#00D4AA"/>
  <text x="340" y="548" text-anchor="middle" font-family="Georgia,serif" font-size="44"
        font-weight="700" fill="#E6EDF3" letter-spacing="2">StudyBuddy</text>
  <text x="340" y="590" text-anchor="middle" font-family="sans-serif" font-size="20"
        font-weight="400" fill="#00D4AA" letter-spacing="3">AI STUDY COMPANION</text>
</svg>